<svg width="226" height="64" xmlns="http://www.w3.org/2000/svg" xmlns:xlink="http://www.w3.org/1999/xlink" xml:space="preserve" overflow="hidden"><g transform="translate(-395 -212)"><path d="M200 72.8365C199.769 72.963 199.47 73.2022 199.337 73.368 199.081 73.6866 196.199 74.4929 192.005 75.4194 190.616 75.7262 189.006 76.1085 188.427 76.2686 187.849 76.4289 186.997 76.6217 186.534 76.6968 186.071 76.7721 184.177 77.1997 182.325 77.6468 176.421 79.0732 170.199 80.4273 166.453 81.101 165.709 81.2348 165.059 81.4665 165.01 81.6157 164.96 81.7647 164.527 82.0687 164.048 82.2911 162.398 83.0579 161.918 83.4385 161.847 84.0369 161.744 84.9127 162.135 85.2182 163.361 85.2197 164.341 85.221 164.473 85.2795 164.802 85.8575L165.164 86.4936 181.162 86.3934 197.16 86.2932 197.16 86.9131C197.16 87.496 197.11 87.533 196.318 87.533L195.476 87.533 195.476 88.6903 195.476 89.8476 196.423 89.8476 197.37 89.8476 197.37 106.974C197.37 122.003 197.331 124.115 197.054 124.222 196.846 124.301 196.739 124.631 196.739 125.191 196.739 126.033 196.733 126.039 195.939 126.039 194.796 126.039 194.635 126.304 194.635 128.185L194.635 129.827 193.372 129.827C191.531 129.827 191.232 130.186 191.312 132.308L191.373 133.93 200.684 133.984 209.995 134.039 209.995 132.391C209.995 130.295 209.618 129.827 207.93 129.827L206.839 129.827 206.839 128.281C206.839 126.515 206.534 126.039 205.402 126.039 204.778 126.039 204.735 125.99 204.735 125.296 204.735 124.83 204.617 124.508 204.419 124.432 204.142 124.325 204.103 122.202 204.103 107.079L204.103 89.8476 204.941 89.8476C205.66 89.8476 205.797 89.7727 205.911 89.3201 205.984 89.0301 205.98 88.4525 205.902 88.0367 205.764 87.303 205.736 87.2832 204.932 87.3598 204.165 87.4331 204.103 87.3992 204.104 86.9072L204.105 86.3757 209.312 86.3757 214.519 86.3757 214.572 87.2174C214.673 88.8239 214.862 89.8476 215.058 89.8476 215.167 89.8476 215.266 89.3979 215.281 88.8481 215.293 88.2983 215.378 87.5646 215.466 87.2174 215.554 86.8702 215.638 89.3085 215.651 92.6356L215.676 98.6851 211.152 98.6851 206.628 98.6851 206.628 107.312 206.628 115.939 211.152 115.939 215.676 115.939 215.676 116.979C215.676 117.551 215.586 118.074 215.474 118.143 215.365 118.211 215.323 118.394 215.382 118.55 215.443 118.705 215.197 119.152 214.837 119.542 214.475 119.933 214.071 120.655 213.938 121.147 213.696 122.034 213.688 122.041 212.728 122.041 212.198 122.041 211.649 122.155 211.51 122.294 211.346 122.458 211.258 123.325 211.258 124.786 211.258 127.862 211.041 127.722 215.805 127.722 220.695 127.722 220.516 127.83 220.516 124.887 220.516 123.688 220.459 122.557 220.387 122.374 220.293 122.127 219.967 122.041 219.125 122.041 218.048 122.041 217.991 122.014 217.991 121.501 217.991 120.867 217.692 120.233 217.069 119.552 216.6 119.035 216.543 118.819 216.423 117.044L216.348 115.939 220.648 115.939 224.949 115.939 224.89 113.993 224.829 112.046 220.735 111.986C217.816 111.942 216.592 111.851 216.476 111.67 216.387 111.53 216.312 110.918 216.312 110.311L216.308 109.206 220.2 109.206 224.093 109.206 224.093 107.312 224.093 105.418 220.234 105.418 216.373 105.418 216.329 104.051 216.284 102.683 220.611 102.683 224.935 102.683 224.935 100.684 224.935 98.6851 220.621 98.6851 216.308 98.6851 216.308 94.5819C216.308 91.3066 216.364 90.4788 216.587 90.4788 216.989 90.4788 217.307 89.7095 217.461 88.3747 217.724 86.0881 216.516 86.3431 226.999 86.3606 236.127 86.3755 236.192 86.3728 236.255 85.9421 236.305 85.5844 236.581 85.4554 237.833 85.2056 239.148 84.943 239.356 84.8386 239.417 84.4178 239.506 83.7954 239.112 83.3247 238.502 83.3247 238.241 83.3247 237.972 83.1869 237.909 83.0185 237.844 82.8502 237.408 82.5169 236.939 82.2779 236.47 82.0388 236.087 81.7112 236.087 81.5498 236.087 81.3398 235.712 81.2306 234.772 81.1654 233.454 81.0743 224.362 79.0413 215.676 76.8963 214.115 76.5106 211.664 75.9526 210.23 75.6565 206.414 74.8683 202.136 73.6931 201.894 73.367 201.666 73.0589 200.87 72.5895 200.593 72.5998 200.498 72.6034 200.232 72.7098 200 72.8365M198.588 74.6019C198.525 74.665 197.728 74.8952 196.817 75.1138 195.906 75.3323 193.384 76.1798 191.213 76.9973 187.223 78.4996 184.319 79.4156 179.906 80.564L177.486 81.1938 187.385 81.2071 197.284 81.2205 197.331 80.5175C197.357 80.1308 197.894 78.6951 198.523 77.3274 199.153 75.9595 199.619 74.761 199.559 74.6638 199.437 74.4668 198.766 74.4241 198.588 74.6019M201.687 74.6917C201.548 74.9173 203.107 78.2949 203.719 79.0922 203.939 79.3796 204.103 79.9425 204.103 80.4098L204.103 81.2254 217.833 81.1915C225.385 81.173 231.327 81.1153 231.037 81.0638 229.85 80.8521 215.773 77.6586 212.558 76.8719 211.363 76.5796 210.353 76.3738 210.312 76.4144 210.181 76.5459 217.793 78.8759 220.937 79.6658 222.614 80.0877 224.223 80.5588 224.514 80.713L225.04 80.9933 224.409 80.9981C222.654 81.0114 215.668 79.0312 209.495 76.7704 206.629 75.7209 202.576 74.4872 201.993 74.4872 201.894 74.4872 201.757 74.5794 201.687 74.6917M199.945 76.9962 199.288 78.4851 200.696 78.4565C201.471 78.4407 201.89 78.3867 201.628 78.3362 201.366 78.2859 201.207 78.1552 201.274 78.0458 201.342 77.9366 201.49 77.9046 201.604 77.9747 201.814 78.1047 201.457 77.1366 200.907 76.0872L200.603 75.5073 199.945 76.9962M189.48 76.6882C187.2 77.271 180.885 78.7195 177.591 79.415 172.807 80.4249 171.068 80.8552 171.068 81.0301 171.068 81.112 172.39 81.1923 174.005 81.2085 176.601 81.2346 176.987 81.1932 177.329 80.8508 177.555 80.6248 178.852 80.1729 180.442 79.7657 183.003 79.1098 188.448 77.4358 190.321 76.7284 191.344 76.3423 190.913 76.3216 189.48 76.6882M198.758 79.8762C198.663 80.1245 198.718 80.1809 198.963 80.0866 199.147 80.0159 199.409 79.9566 199.544 79.9549 199.685 79.953 199.655 79.8646 199.474 79.7476 199.035 79.4636 198.908 79.4863 198.758 79.8762M228.059 80.8529C228.167 80.959 228.476 81.0105 228.752 80.9674 229.172 80.9011 229.143 80.8717 228.558 80.7747 228.139 80.7054 227.944 80.7362 228.059 80.8529M185.68 82.595C186.191 82.9819 186.313 82.9811 186.639 82.5882 186.864 82.3168 186.787 82.2735 186.086 82.2794 185.324 82.2857 185.298 82.3061 185.68 82.595M190.019 82.6049C190.297 82.9396 190.637 83.0017 190.637 82.7181 190.637 82.6158 190.442 82.4811 190.204 82.4189 189.849 82.3261 189.816 82.3593 190.019 82.6049M205.594 82.3322C205.642 82.365 205.824 82.499 205.998 82.6303 206.238 82.8117 206.412 82.7974 206.722 82.5708 207.1 82.2945 207.07 82.2726 206.318 82.2726 205.872 82.2726 205.546 82.2993 205.594 82.3322M210.054 82.6318C210.354 82.9325 210.456 82.9447 210.677 82.7061 210.854 82.5167 210.858 82.4681 210.694 82.5609 210.557 82.6375 210.386 82.604 210.313 82.4864 210.24 82.3688 210.071 82.2726 209.938 82.2726 209.799 82.2726 209.849 82.4273 210.054 82.6318M214.197 82.781C214.586 83.1705 214.652 83.1778 214.959 82.87 215.266 82.5619 215.23 82.5262 214.534 82.4447L213.772 82.3559 214.197 82.781M218.365 82.6002C218.788 82.8967 218.877 82.8967 219.3 82.6002 219.556 82.4201 219.657 82.2726 219.523 82.2726 219.388 82.2726 219.22 82.3675 219.148 82.4837 219.06 82.6246 218.887 82.6246 218.624 82.4837 218.014 82.1573 217.844 82.2343 218.365 82.6002M222.738 82.6234C223.224 82.9794 223.35 82.9754 223.668 82.5939 223.887 82.3296 223.809 82.2882 223.14 82.3134 222.431 82.3399 222.391 82.3702 222.738 82.6234M227.249 82.4231C227.249 82.4479 227.441 82.5704 227.674 82.6953 227.992 82.8651 228.2 82.8515 228.501 82.6404 228.867 82.3843 228.827 82.3593 228.078 82.3681 227.622 82.3734 227.251 82.3982 227.249 82.4231M233.37 82.4668C233.208 82.5699 232.924 82.6089 232.739 82.5529 232.484 82.4754 232.493 82.5076 232.775 82.6886 233.059 82.8721 233.25 82.8517 233.61 82.5994 234.098 82.2577 233.886 82.1405 233.37 82.4668M170.18 83.3102C170.241 83.7304 170.363 83.8903 170.564 83.8133 170.958 83.6622 170.934 83.4589 170.473 83.0421 170.109 82.712 170.094 82.7256 170.18 83.3102M182.877 83.1926C182.464 83.6317 182.449 83.7076 182.752 83.8238 183.232 84.0083 183.214 84.0241 183.317 83.3247 183.368 82.9775 183.395 82.6934 183.378 82.6934 183.36 82.6934 183.135 82.918 182.877 83.1926M188.4 83.1669C188.47 83.4274 188.528 83.7567 188.53 83.8989 188.532 84.0982 188.653 84.1024 189.059 83.9176 189.706 83.6224 189.718 83.4421 189.117 83.0211 188.469 82.567 188.251 82.6114 188.4 83.1669M196.575 83.0211C196.004 83.4213 195.992 83.5721 196.507 83.8937 196.866 84.118 196.914 84.0702 196.991 83.4181 197.037 83.0196 197.068 82.6934 197.059 82.6934 197.05 82.6934 196.832 82.8409 196.575 83.0211M204.385 83.1416C204.458 83.4158 204.52 83.7619 204.521 83.9107 204.524 84.1159 204.626 84.1268 204.945 83.9559 205.506 83.6557 205.476 83.445 204.809 83.008 204.256 82.6459 204.253 82.6469 204.385 83.1416M207.664 83.2721 207.154 83.8507 207.733 83.3407C208.051 83.06 208.312 82.7997 208.312 82.762 208.312 82.5969 208.141 82.7313 207.664 83.2721M221.147 83.1587C221.147 83.8105 221.275 83.9378 221.799 83.8011 222.302 83.6696 222.233 83.3634 221.608 82.9489 221.177 82.661 221.147 82.6739 221.147 83.1587M225.801 83.1669C225.82 83.5515 225.844 83.5677 225.926 83.2534 226.018 82.8935 226.065 82.9009 226.584 83.3586L227.144 83.8507 226.635 83.2721C226.014 82.5697 225.768 82.5386 225.801 83.1669M234.523 83.0947C234.273 83.3739 234.193 83.6197 234.315 83.7417 234.626 84.0525 235.079 83.6407 235.001 83.1185L234.929 82.6442 234.523 83.0947M180.119 83.0166C180.125 83.3788 180.51 83.8429 180.671 83.6818 180.757 83.5957 180.667 83.3651 180.472 83.1694 180.276 82.9737 180.117 82.9049 180.119 83.0166M184.324 83.2195C184.324 83.4009 184.514 83.5351 184.771 83.5351 185.144 83.5351 185.174 83.4831 184.956 83.2195 184.811 83.0459 184.61 82.9039 184.509 82.9039 184.407 82.9039 184.324 83.0459 184.324 83.2195M188.689 83.1336C188.832 83.318 188.888 83.5309 188.811 83.6071 188.735 83.6832 188.783 83.7455 188.918 83.7455 189.279 83.7455 189.218 83.4183 188.796 83.0873 188.47 82.8319 188.458 82.8372 188.689 83.1336M212.89 83.1614C212.745 83.5601 212.935 83.9559 213.273 83.9559 213.656 83.9559 213.66 83.449 213.282 83.1347 213.061 82.951 212.966 82.9575 212.89 83.1614M230.616 83.3849C230.616 83.9658 230.896 84.1432 231.154 83.7253 231.232 83.5984 231.144 83.3415 230.957 83.1543 230.643 82.8405 230.616 82.8586 230.616 83.3849M193.721 83.4406C193.785 83.6083 193.923 83.7455 194.026 83.7455 194.329 83.7455 194.242 83.3805 193.909 83.2527 193.705 83.1745 193.643 83.2367 193.721 83.4406M215.714 83.3704C215.407 83.6792 215.394 83.9559 215.689 83.9559 215.811 83.9559 215.857 83.8692 215.792 83.7634 215.727 83.6576 215.792 83.5286 215.937 83.4766 216.084 83.4249 216.148 83.3236 216.082 83.2519 216.017 83.1799 215.851 83.2334 215.714 83.3704M170.948 84.8092 170.332 85.2157 171.449 85.217C172.559 85.2184 172.717 85.0192 171.936 84.6013 171.669 84.4584 171.392 84.5167 170.948 84.8092M176.777 84.8176 176.282 85.2184 177.264 85.2184C178.243 85.2184 178.371 85.0047 177.63 84.6082 177.377 84.4725 177.128 84.5335 176.777 84.8176M190.111 84.8237 189.48 85.2161 190.619 85.2174C191.246 85.218 191.72 85.1938 191.671 85.1635 191.623 85.1334 191.394 84.9563 191.163 84.77 190.774 84.4569 190.694 84.4609 190.111 84.8237M194.319 84.7976C193.943 85.213 193.951 85.2184 194.97 85.2138L196.002 85.2092 195.476 84.7976C194.82 84.284 194.784 84.284 194.319 84.7976M205.785 84.8062 205.261 85.2092 206.295 85.2138C206.864 85.2163 207.29 85.1938 207.242 85.1635 207.194 85.1334 206.964 84.9502 206.732 84.7561 206.335 84.425 206.277 84.4279 205.785 84.8062M209.89 84.7976C209.513 85.214 209.522 85.2184 210.75 85.217L211.994 85.2157 211.363 84.7976C210.572 84.2732 210.364 84.2732 209.89 84.7976M222.86 84.8045 222.363 85.2184 223.596 85.217 224.829 85.2157 224.198 84.7976C223.434 84.2922 223.474 84.292 222.86 84.8045M227.346 84.8045 226.723 85.2157 227.864 85.217C228.491 85.2178 228.964 85.1938 228.916 85.1635 228.867 85.1334 228.634 84.9478 228.398 84.7511 227.994 84.413 227.937 84.4159 227.346 84.8045M231.439 84.7814 230.931 85.2043 231.497 85.2115C232.133 85.2193 232.35 85.0101 232.11 84.6206 231.988 84.4226 231.824 84.462 231.439 84.7814M167.163 84.8893C166.784 85.1698 166.809 85.1886 167.524 85.1524 168.113 85.1225 168.243 85.0514 168.077 84.8502 167.8 84.5135 167.663 84.5194 167.163 84.8893M181.05 84.8961C180.673 85.1816 180.72 85.2056 181.667 85.2117 182.555 85.2176 182.657 85.1761 182.431 84.9028 182.099 84.5028 181.574 84.5003 181.05 84.8961M185.797 84.9028C185.571 85.1749 185.658 85.2184 186.428 85.2184 187.199 85.2184 187.285 85.1749 187.06 84.9028 186.916 84.7292 186.632 84.5872 186.428 84.5872 186.225 84.5872 185.941 84.7292 185.797 84.9028M218.201 84.9028C217.974 85.1759 218.075 85.2184 218.952 85.2184 219.889 85.2184 219.933 85.1949 219.556 84.9095 219.028 84.5095 218.53 84.5072 218.201 84.9028M216.592 88.3747C216.592 89.3584 216.627 89.7607 216.672 89.2689 216.716 88.7772 216.716 87.9721 216.672 87.4804 216.627 86.9887 216.592 87.391 216.592 88.3747M199.397 90.0134C199.326 90.1279 199.578 90.4582 199.957 90.7473L200.646 91.2729 201.326 90.6655 202.006 90.058 201.398 90.058C201.063 90.058 200.505 90.0012 200.157 89.9315 199.81 89.8621 199.467 89.8989 199.397 90.0134M198.633 92.095 198.633 93.0773 199.159 92.583C199.448 92.3111 199.685 92.075 199.685 92.0582 199.685 92.0414 199.448 91.8217 199.159 91.5703L198.633 91.1128 198.633 92.095M202.082 91.6056 201.638 92.057 202.239 92.6882 202.84 93.3194 202.841 92.2148C202.841 91.007 202.746 90.9304 202.082 91.6056M199.98 93.2668 199.579 93.7403 200.049 93.343C200.456 92.9986 200.568 92.9845 200.891 93.2378 201.229 93.5031 201.236 93.4962 200.974 93.1616 200.598 92.6825 200.463 92.6968 199.98 93.2668M199.895 95.634C200.167 95.9233 200.437 96.1601 200.495 96.1601 200.552 96.1601 200.377 95.9233 200.105 95.634 199.834 95.3447 199.564 95.108 199.506 95.108 199.448 95.108 199.623 95.3447 199.895 95.634M198.636 96.914C198.638 97.5046 198.711 97.836 198.806 97.686 198.99 97.3965 198.956 96.2023 198.758 96.0046 198.689 95.9358 198.634 96.345 198.636 96.914M202.212 96.4702 201.689 97.0299 202.212 97.4272C202.735 97.8238 202.736 97.8236 202.803 97.3049 202.839 97.0192 202.839 96.5887 202.803 96.348 202.738 95.9288 202.714 95.9339 202.212 96.4702M199.939 98.413 199.247 98.9628 199.915 99.6525 200.584 100.342 201.398 99.6879 202.212 99.0335 201.527 98.4469C201.15 98.1245 200.795 97.8611 200.737 97.8619 200.679 97.8625 200.32 98.1106 199.939 98.413M236.507 98.6937C231.611 98.8168 230.639 99.0049 229.143 100.118 228.162 100.849 227.954 101.112 227.289 102.473 226.738 103.598 226.723 103.733 226.723 107.417 226.723 111.143 226.734 111.225 227.314 112.409 227.641 113.071 228.293 113.944 228.764 114.348 230.858 116.139 235.786 116.757 242.41 116.058 246.759 115.6 246.397 115.83 246.397 113.532 246.397 112.464 246.349 111.541 246.288 111.481 246.227 111.421 245.446 111.5 244.552 111.656 242.18 112.069 236.173 112.241 234.677 111.939 232.219 111.442 231.794 110.762 231.782 107.312 231.773 104.648 231.969 103.991 232.998 103.228 233.547 102.822 233.869 102.788 237.206 102.788 239.194 102.788 242.052 102.823 243.556 102.865L246.292 102.942 246.353 101.02C246.397 99.5983 246.342 99.0743 246.142 99.0047 245.406 98.7488 240.547 98.592 236.507 98.6937M62.3197 105.155 62.3883 111.626 63.0124 112.753C63.804 114.182 64.6795 114.901 66.3349 115.481 69.8351 116.71 77.3161 116.638 80.2318 115.348 81.5006 114.787 82.5811 113.776 83.1526 112.616 83.6254 111.656 83.6424 111.428 83.7066 105.155L83.7729 98.6851 81.129 98.6851 78.4851 98.6851 78.4851 104.377C78.4851 110.751 78.4403 110.984 77.0892 111.625 75.5389 112.361 69.2609 112.124 68.2585 111.292 67.5422 110.698 67.4703 110.011 67.5281 104.314L67.5849 98.6851 64.9179 98.6851 62.2509 98.6851 62.3197 105.155M90.002 98.914C87.279 99.5555 86.0561 101.132 86.0647 103.991 86.0774 108.188 88.1744 109.206 96.81 109.206 100.247 109.206 100.563 109.238 101.076 109.642 101.734 110.159 101.789 110.858 101.228 111.55L100.826 112.046 95.5997 112.033C91.7005 112.023 89.8533 111.929 88.3244 111.665 87.1972 111.47 86.2232 111.31 86.16 111.31 86.0967 111.31 86.0719 112.229 86.1051 113.351L86.1653 115.393 87.9538 115.659C93.3986 116.469 97.8743 116.592 101.226 116.024 103.659 115.612 105.064 114.907 105.934 113.664 106.468 112.901 106.581 112.515 106.646 111.238 106.78 108.568 105.996 106.986 104.093 106.092 102.766 105.468 101.95 105.382 97.3173 105.379 92.4328 105.376 91.3447 105.19 91.0533 104.307 90.8029 103.548 91.278 102.784 92.0952 102.63 92.4214 102.568 95.6235 102.585 99.2111 102.667 102.799 102.749 105.747 102.81 105.763 102.802 105.779 102.794 105.827 101.936 105.868 100.894L105.944 99.0007 104.787 98.8637C103.051 98.6581 90.9129 98.6994 90.002 98.914M108.785 107.312 108.785 115.939 111.415 115.939 114.045 115.939 114.045 112.678 114.045 109.416 119.411 109.416 124.777 109.416 124.777 112.678 124.777 115.939 127.407 115.939 130.037 115.939 130.037 107.312 130.037 98.6851 127.407 98.6851 124.777 98.6851 124.777 102.058 124.777 105.431 119.411 105.411 114.045 105.392 114.045 102.038 114.045 98.6851 111.415 98.6851 108.785 98.6851 108.785 107.312M132.772 107.312 132.772 115.939 142.248 115.939 151.724 115.939 151.664 113.993 151.605 112.046 144.752 111.941 137.9 111.836 137.846 110.524 137.793 109.212 144.278 109.156 150.763 109.101 150.824 107.259 150.885 105.418 144.401 105.418 137.918 105.418 137.856 104.051 137.795 102.683 144.647 102.683 151.499 102.683 151.499 100.684 151.499 98.6851 142.136 98.6851 132.772 98.6851 132.772 107.312M154.024 107.312 154.024 115.939 156.549 115.939 159.074 115.939 159.074 113.414 159.074 110.889 161.968 110.902 164.861 110.915 167.07 113.426 169.28 115.937 172.383 115.938C174.09 115.939 175.487 115.884 175.487 115.816 175.487 115.696 174.621 114.741 171.957 111.925L170.637 110.529 171.597 110.163C173.82 109.314 174.678 107.947 174.815 105.042 174.921 102.771 174.613 101.687 173.55 100.6 171.845 98.8568 170.776 98.6851 161.622 98.6851L154.024 98.6851 154.024 107.312M176.749 100.651 176.749 102.617 180.25 102.749C182.175 102.821 183.798 102.928 183.856 102.986 183.959 103.089 184.026 105.897 184.085 112.625L184.114 115.939 186.639 115.939 189.164 115.939 189.164 109.292 189.164 102.645 191.741 102.686C193.159 102.708 194.627 102.717 195.003 102.705L195.687 102.683 195.687 100.684 195.687 98.6851 186.218 98.6851 176.749 98.6851 176.749 100.651M248.922 107.312 248.922 115.939 251.447 115.939 253.972 115.939 253.972 112.678 253.972 109.416 259.443 109.416 264.914 109.416 264.914 112.678 264.914 115.939 267.439 115.939 269.964 115.939 269.964 107.312 269.964 98.6851 267.439 98.6851 264.914 98.6851 264.914 102.052 264.914 105.418 259.443 105.418 253.972 105.418 253.972 102.052 253.972 98.6851 251.447 98.6851 248.922 98.6851 248.922 107.312M201.348 99.2347C201.194 99.4211 200.882 99.6422 200.656 99.726 200.429 99.8097 200.331 99.9316 200.438 99.9966 200.544 100.062 200.959 99.8407 201.36 99.5053 201.761 99.1698 201.985 98.8955 201.859 98.8955 201.733 98.8955 201.503 99.048 201.348 99.2347M202.464 100.167C202.316 100.403 202.248 100.68 202.311 100.783 202.375 100.886 202.316 101.039 202.181 101.123 202.016 101.224 201.991 101.183 202.104 101 202.217 100.817 202.192 100.775 202.031 100.874 201.857 100.983 201.892 101.167 202.157 101.532 202.709 102.291 202.841 102.168 202.841 100.894 202.841 100.258 202.816 99.7371 202.786 99.7371 202.756 99.7371 202.611 99.9303 202.464 100.167M198.633 101.117 198.633 102.286 199.138 101.698 199.643 101.111 199.229 100.529C199.001 100.209 198.773 99.9475 198.723 99.9475 198.673 99.9475 198.633 100.474 198.633 101.117M199.946 102.636C199.569 102.951 199.261 103.382 199.262 103.593 199.264 103.926 199.41 103.966 200.369 103.894 201.141 103.836 201.476 103.72 201.483 103.51 201.488 103.344 201.63 103.24 201.798 103.278 201.967 103.316 201.826 103.055 201.486 102.699 201.147 102.343 200.815 102.054 200.75 102.057 200.685 102.061 200.323 102.321 199.946 102.636M159.075 104.84 159.075 106.996 163.441 107.047C168.309 107.104 169.087 106.968 169.561 105.977 169.983 105.097 169.714 103.648 169.029 103.11 168.521 102.71 168.189 102.683 163.78 102.683L159.074 102.683 159.075 104.84M211.699 104.051 211.655 105.418 213.667 105.418 215.676 105.418 215.676 104.051 215.676 102.683 213.711 102.683 211.746 102.683 211.699 104.051M202.2 104.273C201.975 104.544 201.98 104.589 202.227 104.536 202.441 104.49 202.56 104.767 202.65 105.524L202.775 106.576 202.808 105.261C202.841 103.927 202.69 103.682 202.2 104.273M198.633 105.409C198.633 106.003 198.678 106.064 198.951 105.837 199.207 105.624 199.219 105.507 199.01 105.233 198.868 105.046 198.725 104.853 198.692 104.805 198.659 104.756 198.633 105.028 198.633 105.409M199.795 107.664 199 108.437 199.707 109.014C200.096 109.331 200.489 109.544 200.581 109.488 200.672 109.431 200.734 109.463 200.717 109.559 200.638 110.012 200.8 109.935 201.597 109.138L202.457 108.278 201.764 107.713C201.383 107.402 200.934 107.201 200.765 107.266 200.567 107.342 200.511 107.296 200.609 107.137 200.881 106.698 200.608 106.875 199.795 107.664M201.578 108.302C201.578 108.491 201.422 108.82 201.23 109.031 200.665 109.656 201.027 109.471 201.657 108.813 202.136 108.313 202.179 108.187 201.907 108.083 201.691 108 201.578 108.075 201.578 108.302M211.678 110.551C211.678 111.805 211.714 111.904 212.198 112.026 212.482 112.097 213.383 112.094 214.197 112.018L215.676 111.881 215.676 110.543 215.676 109.206 213.677 109.206 211.678 109.206 211.678 110.551M198.639 110.801C198.644 111.836 198.704 112.157 198.848 111.91 198.959 111.719 199.016 111.27 198.974 110.911 198.892 110.204 199.012 110.112 199.482 110.521 199.648 110.666 199.548 110.5 199.261 110.153 198.973 109.806 198.714 109.482 198.685 109.434 198.656 109.386 198.636 110.001 198.639 110.801M202.286 110.222 201.836 110.793 202.338 111.42 202.839 112.046 202.84 110.837C202.84 110.171 202.817 109.632 202.788 109.638 202.759 109.645 202.533 109.907 202.286 110.222M200.028 112.42C199.607 112.933 199.264 113.402 199.264 113.463 199.264 113.525 199.573 113.81 199.951 114.099L200.638 114.623 201.519 113.841 202.4 113.059 201.596 112.274 200.791 111.488 200.028 112.42M202.151 114.906C201.829 115.274 201.616 115.626 201.677 115.687 201.739 115.749 201.789 115.712 201.79 115.606 201.79 115.5 202.002 115.745 202.262 116.15L202.733 116.886 202.8 116.202C202.837 115.826 202.838 115.23 202.802 114.877L202.736 114.236 202.151 114.906M198.633 115.45 198.633 116.433 199.16 115.938 199.687 115.443 199.228 114.954C198.976 114.686 198.739 114.466 198.701 114.466 198.664 114.466 198.633 114.909 198.633 115.45M200.81 116.713C201.186 117.161 201.186 117.17 200.787 117.065 200.476 116.984 200.252 117.172 199.85 117.852L199.322 118.747 200.026 119.45 200.729 120.154 201.622 119.288 202.514 118.422 201.94 118.004C201.624 117.774 201.411 117.513 201.466 117.424 201.521 117.335 201.309 117.036 200.995 116.759 200.508 116.328 200.481 116.322 200.81 116.713M202.484 119.99C202.375 120.134 202.269 120.53 202.247 120.868 202.226 121.207 202.075 121.633 201.913 121.815 201.655 122.104 201.695 122.24 202.229 122.875L202.841 123.603 202.841 121.665C202.841 120.599 202.805 119.727 202.761 119.727 202.718 119.727 202.593 119.845 202.484 119.99M198.633 121.551 198.633 123.19 199.135 122.668C199.434 122.357 199.562 122.066 199.45 121.947 199.348 121.837 199.264 121.535 199.264 121.275 199.264 121.016 199.168 120.744 199.05 120.671 198.932 120.599 198.887 120.458 198.948 120.358 199.01 120.258 198.964 120.117 198.846 120.044 198.709 119.959 198.633 120.494 198.633 121.551M215.622 120.083C215.226 120.186 214.624 121.172 214.624 121.715 214.624 121.976 214.896 122.041 215.977 122.041L217.33 122.041 217.141 121.381C216.956 120.733 216.364 119.913 216.116 119.961 216.049 119.975 215.826 120.029 215.622 120.083M199.953 123.397C199.632 123.673 199.429 123.959 199.502 124.033 199.576 124.106 200.202 124.138 200.894 124.104L202.151 124.04 201.344 123.467 200.537 122.894 199.953 123.397M200.41 123.322C200.308 123.486 200.339 123.525 200.494 123.429 200.638 123.34 200.737 123.412 200.737 123.607 200.737 123.803 200.92 123.935 201.193 123.935 201.443 123.935 201.609 123.91 201.561 123.88 201.513 123.85 201.27 123.654 201.021 123.446 200.682 123.161 200.528 123.13 200.41 123.322" fill="#FFFFFF" fill-rule="evenodd" transform="matrix(1 0 0 1.00031 336.743 140.135)"/></g></svg>